<svg width="58" height="71" viewBox="0 0 58 71" fill="none" xmlns="http://www.w3.org/2000/svg">
<g filter="url(#filter0_d_6101_411)">
<rect x="4" width="50" height="50" rx="8" fill="white"/>
</g>
<path d="M37.111 18.7778V23.4445H32.4443" stroke="#A8BACD" stroke-width="2" stroke-linecap="round" stroke-linejoin="round"/>
<path d="M20 31.2222V26.5555H24.6667" stroke="#A8BACD" stroke-width="2" stroke-linecap="round" stroke-linejoin="round"/>
<path d="M21.0095 22.3331C20.8253 22.8537 21.098 23.4251 21.6186 23.6094C22.1393 23.7936 22.7107 23.5209 22.8949 23.0003L21.0095 22.3331ZM33.5022 20.0533L32.7949 20.7603C32.8023 20.7677 32.8098 20.7749 32.8174 20.7821L33.5022 20.0533ZM36.4263 24.1732C36.8288 24.5514 37.4617 24.5317 37.8399 24.1292C38.2181 23.7267 38.1984 23.0939 37.7959 22.7157L36.4263 24.1732ZM20.6848 25.8268C20.2823 25.4486 19.6494 25.4683 19.2712 25.8708C18.8931 26.2733 18.9127 26.9061 19.3152 27.2843L20.6848 25.8268ZM23.6089 29.9467L24.3162 29.2397C24.3088 29.2323 24.3013 29.2251 24.2937 29.2179L23.6089 29.9467ZM36.1016 27.6669C36.2858 27.1463 36.0131 26.5749 35.4925 26.3906C34.9718 26.2064 34.4004 26.4791 34.2162 26.9997L36.1016 27.6669ZM22.8949 23.0003C23.5822 21.0581 25.2178 19.6044 27.2271 19.1498L26.7858 17.1991C24.1066 17.8053 21.9258 19.7436 21.0095 22.3331L22.8949 23.0003ZM27.2271 19.1498C29.2365 18.6951 31.3386 19.3032 32.7949 20.7603L34.2095 19.3464C32.2677 17.4036 29.4649 16.5929 26.7858 17.1991L27.2271 19.1498ZM32.8174 20.7821L36.4263 24.1732L37.7959 22.7157L34.187 19.3246L32.8174 20.7821ZM19.3152 27.2843L22.9241 30.6754L24.2937 29.2179L20.6848 25.8268L19.3152 27.2843ZM22.9016 30.6536C24.8434 32.5964 27.6462 33.4071 30.3253 32.8009L29.884 30.8502C27.8746 31.3049 25.7725 30.6968 24.3162 29.2397L22.9016 30.6536ZM30.3253 32.8009C33.0045 32.1947 35.1853 30.2564 36.1016 27.6669L34.2162 26.9997C33.5289 28.9419 31.8933 30.3956 29.884 30.8502L30.3253 32.8009Z" fill="#A8BACD"/>
<defs>
<filter id="filter0_d_6101_411" x="-44" y="-46" width="146" height="146" filterUnits="userSpaceOnUse" color-interpolation-filters="sRGB">
<feFlood flood-opacity="0" result="BackgroundImageFix"/>
<feColorMatrix in="SourceAlpha" type="matrix" values="0 0 0 0 0 0 0 0 0 0 0 0 0 0 0 0 0 0 127 0" result="hardAlpha"/>
<feOffset dy="2"/>
<feGaussianBlur stdDeviation="24"/>
<feColorMatrix type="matrix" values="0 0 0 0 0 0 0 0 0 0 0 0 0 0 0 0 0 0 0.04 0"/>
<feBlend mode="normal" in2="BackgroundImageFix" result="effect1_dropShadow_6101_411"/>
<feBlend mode="normal" in="SourceGraphic" in2="effect1_dropShadow_6101_411" result="shape"/>
</filter>
</defs>
</svg>
